<svg width="24" height="24" viewBox="0 0 24 24" fill="none" xmlns="http://www.w3.org/2000/svg">
<path d="M11.9841 5.25015C8.33067 5.25015 4.58301 7.36468 1.6327 11.5937C1.54849 11.7158 1.50234 11.86 1.50009 12.0083C1.49783 12.1566 1.53958 12.3022 1.62004 12.4267C3.88692 15.9751 7.58442 18.7501 11.9841 18.7501C16.336 18.7501 20.1094 15.9667 22.3805 12.4103C22.4591 12.2882 22.5009 12.1461 22.5009 12.0009C22.5009 11.8556 22.4591 11.7135 22.3805 11.5914C20.1043 8.07578 16.3032 5.25015 11.9841 5.25015Z" stroke="black" stroke-width="1.5" stroke-linecap="round" stroke-linejoin="round"/>
<path d="M12 15.7499C14.0711 15.7499 15.75 14.0709 15.75 11.9999C15.75 9.92881 14.0711 8.24988 12 8.24988C9.92893 8.24988 8.25 9.92881 8.25 11.9999C8.25 14.0709 9.92893 15.7499 12 15.7499Z" stroke="black" stroke-width="1.5" stroke-miterlimit="10"/>
</svg>
