<svg width="24" height="24" viewBox="0 0 24 24" fill="none" xmlns="http://www.w3.org/2000/svg">
<path d="M15.75 9.75025V5.29713C15.75 4.30257 15.3549 3.34874 14.6516 2.64548C13.9484 1.94222 12.9946 1.54713 12 1.54713C11.0054 1.54713 10.0516 1.94222 9.34835 2.64548C8.64509 3.34874 8.25 4.30257 8.25 5.29713V9.75025" stroke="black" stroke-width="1.5" stroke-linecap="round" stroke-linejoin="round"/>
<path d="M17.25 9.74924H6.75C5.50736 9.74924 4.5 10.7566 4.5 11.9992V20.2492C4.5 21.4919 5.50736 22.4992 6.75 22.4992H17.25C18.4926 22.4992 19.5 21.4919 19.5 20.2492V11.9992C19.5 10.7566 18.4926 9.74924 17.25 9.74924Z" stroke="black" stroke-width="1.5" stroke-linecap="round" stroke-linejoin="round"/>
</svg>
